<svg aria-hidden="true" style="width:0;height:0;position:absolute;overflow:hidden" xmlns="http://www.w3.org/2000/svg"><defs><symbol id="arrow" viewBox="0 0 38 32"><path fill="#fff" style="fill:var(--color1,#fff)" d="M0 16c0-.606.253-1.187.703-1.616s1.06-.669 1.697-.669h27.803L19.899 3.906c-.451-.429-.704-1.011-.704-1.618s.253-1.189.704-1.618C20.35.241 20.961 0 21.598 0s1.248.241 1.699.67l14.398 13.712c.223.212.401.464.522.742a2.19 2.19 0 0 1 0 1.752c-.121.278-.298.53-.522.742L23.297 31.33c-.451.429-1.062.67-1.699.67s-1.248-.241-1.699-.67c-.451-.429-.704-1.011-.704-1.618s.253-1.189.704-1.618l10.304-9.808H2.4c-.636 0-1.247-.241-1.697-.669S0 16.607 0 16.001z"/></symbol><symbol id="cross" viewBox="0 0 32 32"><path d="M31.708 25.708 22 16l9.708-9.708a1 1 0 0 0 0-1.414L27.122.292a1 1 0 0 0-1.414-.001L16 9.999 6.292.291a.998.998 0 0 0-1.414.001L.292 4.878a1 1 0 0 0 0 1.414L10 16 .292 25.708a.999.999 0 0 0 0 1.414l4.586 4.586a1 1 0 0 0 1.414 0L16 22l9.708 9.708a1 1 0 0 0 1.414 0l4.586-4.586a.999.999 0 0 0 0-1.414z"/></symbol></defs></svg>